HIERARCHY
ROOT Hips
{
 OFFSET 0.000000 0.000000 0.000000
 CHANNELS 6 Xposition Yposition Zposition Yrotation Xrotation Zrotation
 JOINT Chest
 {
  OFFSET 0.000000 9.585900 0.002600
  CHANNELS 3 Yrotation Xrotation Zrotation
  JOINT Chest2
  {
   OFFSET 0.000000 9.601200 -0.005300
   CHANNELS 3 Yrotation Xrotation Zrotation
   JOINT Chest3
   {
    OFFSET 0.000000 9.561800 0.000000
    CHANNELS 3 Yrotation Xrotation Zrotation
    JOINT Chest4
    {
     OFFSET 0.000000 9.552100 0.000000
     CHANNELS 3 Yrotation Xrotation Zrotation
     JOINT Neck
     {
      OFFSET 0.000000 14.453000 0.000000
      CHANNELS 3 Yrotation Xrotation Zrotation
      JOINT Head
      {
       OFFSET 0.000000 8.936500 -0.011300
       CHANNELS 3 Yrotation Xrotation Zrotation
       End Site
       {
        OFFSET 0.000000 17.073600 -0.006000
       }
      }
     }
     JOINT RightCollar
     {
      OFFSET -2.921100 9.558500 0.000000
      CHANNELS 3 Yrotation Xrotation Zrotation
      JOINT RightShoulder
      {
       OFFSET -13.519700 0.000000 0.000000
       CHANNELS 3 Yrotation Xrotation Zrotation
       JOINT RightElbow
       {
        OFFSET 0.000000 -29.696600 0.000000
        CHANNELS 3 Yrotation Xrotation Zrotation
        JOINT RightWrist
        {
         OFFSET 0.000000 -24.004700 0.000000
         CHANNELS 3 Yrotation Xrotation Zrotation
         End Site
         {
          OFFSET 0.000000 -17.728500 0.000000
         }
        }
       }
      }
     }
     JOINT LeftCollar
     {
      OFFSET 2.921100 9.558500 0.000000
      CHANNELS 3 Yrotation Xrotation Zrotation
      JOINT LeftShoulder
      {
       OFFSET 13.519700 0.000000 0.000000
       CHANNELS 3 Yrotation Xrotation Zrotation
       JOINT LeftElbow
       {
        OFFSET 0.000000 -29.696600 0.000000
        CHANNELS 3 Yrotation Xrotation Zrotation
        JOINT LeftWrist
        {
         OFFSET 0.000000 -24.004700 0.000000
         CHANNELS 3 Yrotation Xrotation Zrotation
         End Site
         {
          OFFSET 0.000000 -17.728500 0.000000
         }
        }
       }
      }
     }
    }
   }
  }
 }
 JOINT RightHip
 {
  OFFSET -7.771700 -0.012900 -0.001300
  CHANNELS 3 Yrotation Xrotation Zrotation
  JOINT RightKnee
  {
   OFFSET 0.000000 -40.869800 0.001200
   CHANNELS 3 Yrotation Xrotation Zrotation
   JOINT RightAnkle
   {
    OFFSET 0.000000 -39.717900 0.002100
    CHANNELS 3 Yrotation Xrotation Zrotation
    JOINT RightToe
    {
     OFFSET 0.000000 -4.965400 11.033500
     CHANNELS 3 Yrotation Xrotation Zrotation
     End Site
     {
      OFFSET 0.000000 -1.423100 5.872300
     }
    }
   }
  }
 }
 JOINT LeftHip
 {
  OFFSET 7.771700 -0.012900 -0.001300
  CHANNELS 3 Yrotation Xrotation Zrotation
  JOINT LeftKnee
  {
   OFFSET 0.000000 -40.869800 0.001200
   CHANNELS 3 Yrotation Xrotation Zrotation
   JOINT LeftAnkle
   {
    OFFSET 0.000000 -39.717900 0.002100
    CHANNELS 3 Yrotation Xrotation Zrotation
    JOINT LeftToe
    {
     OFFSET 0.000000 -4.965400 11.033500
     CHANNELS 3 Yrotation Xrotation Zrotation
     End Site
     {
      OFFSET 0.000000 -1.423100 5.872300
     }
    }
   }
  }
 }
}
MOTION
Frames: 5
Frame Time: 0.008333
0.000000 85.388000 0.000000 0.000000 -5.767877 0.000000 0.000000 11.653817 0.000000 0.000000 -5.885947 0.000000 0.000000 -0.000000 0.000000 0.000000 -0.000000 0.000000 0.000000 12.528835 0.000000 0.000000 0.711642 0.000000 0.000000 -0.000000 0.000000 0.000000 0.000000 -90.000000 0.000000 -2.309062 0.000000 0.000000 2.309062 0.000000 0.000000 -0.000000 0.000000 0.000000 -0.000000 90.000000 0.000000 -2.309062 0.000000 0.000000 2.309062 0.000000 0.000000 8.520406 0.000000 0.000000 1.905762 0.000000 -0.000000 -4.658285 0.000000 0.000000 -0.000000 0.000000 0.000000 8.520406 0.000000 0.000000 1.905762 0.000000 -0.000000 -4.658285 0.000000 0.000000 -0.000000 0.000000
-12.668236 57.983900 35.660463 169.915485 -41.572846 -1.412189 3.191109 22.839345 2.479679 0.414028 3.391037 0.157458 0.676236 5.473118 0.267107 2.597012 19.424140 1.291886 2.001569 18.660318 2.072401 3.034614 -1.139760 3.154338 2.768688 1.618315 2.313473 20.739090 -27.853913 -13.758245 40.104218 -46.806175 -19.783351 10.042024 -2.354776 -31.862056 -6.689274 0.336997 -1.028202 -87.525647 -10.473645 13.962602 5.905809 -42.912373 45.589333 -24.188990 -1.815774 23.594391 14.846754 -31.089773 2.057756 -4.924252 67.516884 0.247248 3.514839 5.014488 6.089371 -0.033897 0.122965 -0.026014 -9.111453 -32.775672 -0.547425 29.033260 68.338236 26.862185 -24.419191 3.405580 -5.074621 -0.311993 -0.914932 -0.140981
-12.666618 57.983898 35.659781 169.911796 -41.571128 -1.411687 3.192417 22.839905 2.479043 0.415533 3.390178 0.158184 0.679348 5.475266 0.266711 2.596696 19.422862 1.291269 2.026042 18.674783 2.071381 3.048001 -1.136715 3.162745 2.769615 1.610856 2.315731 20.740962 -27.848534 -13.766132 40.086060 -46.815982 -19.755146 10.048858 -2.350470 -31.873930 -6.686666 0.331625 -1.025253 -87.530787 -10.474763 13.957120 5.904614 -42.913549 45.582623 -24.191052 -1.805794 23.599562 14.842173 -31.092042 2.063976 -4.929504 67.517762 0.236795 3.517519 5.013602 6.090529 -0.035136 0.126825 -0.024892 -9.103545 -32.777300 -0.550619 29.046454 68.337813 26.882116 -24.398945 3.405156 -5.077322 -0.307262 -0.913907 -0.137807
-12.664794 57.983957 35.658931 169.910148 -41.569737 -1.413830 3.199775 22.845255 2.485203 0.416071 3.390246 0.157365 0.678283 5.473350 0.266574 2.598083 19.419015 1.287272 2.034387 18.683249 2.077013 3.060956 -1.128756 3.167290 2.769684 1.603628 2.319985 20.757993 -27.845285 -13.791875 40.046206 -46.819956 -19.711152 10.051151 -2.356588 -31.888929 -6.686709 0.324958 -1.022635 -87.533109 -10.470820 13.947118 5.902817 -42.913445 45.581296 -24.183953 -1.805541 23.599931 14.817515 -31.093775 2.075841 -4.918872 67.519118 0.236673 3.515202 5.016811 6.084944 -0.035208 0.127740 -0.025372 -9.101255 -32.777890 -0.550714 29.057811 68.336289 26.902335 -24.393120 3.400691 -5.085923 -0.300387 -0.911196 -0.134219
-12.664793 57.983808 35.657829 169.907325 -41.566867 -1.405332 3.201071 22.847073 2.479613 0.414997 3.387627 0.156756 0.680562 5.477146 0.266066 2.598894 19.421127 1.285375 2.041628 18.686905 2.080192 3.071051 -1.120073 3.172433 2.772064 1.590403 2.319984 20.765238 -27.840296 -13.803722 40.022693 -46.824668 -19.688755 10.051346 -2.359222 -31.887847 -6.688411 0.317007 -1.023334 -87.532928 -10.464731 13.940394 5.896916 -42.916522 45.591299 -24.173700 -1.801855 23.600498 14.815635 -31.097012 2.064785 -4.918215 67.524948 0.240790 3.515481 5.019810 6.083613 -0.035097 0.129797 -0.026612 -9.091571 -32.780879 -0.562111 29.058398 68.335568 26.908496 -24.385912 3.398021 -5.084763 -0.306723 -0.908634 -0.136704
